# xmcd
#
# Track frame offsets: 
#        150
#        24870
#        49639
#        67383
#        88167
#        110955
#        131418
#        153082
#        172299
#        191043
#        215939
#        234982
#        260110
#
# Disc length: 3744 seconds
#
# Revision: 0
# Processed by: cddbd v1.5.2PL0 Copyright (c) Steve Scherf et al.
# Submitted via: ExactAudioCopy v0.95a5
#
DISCID=c70e9e0d
DTITLE=晓逍 - 伤情-试音王三号
DYEAR=1900
DGENRE=Vocal
TTITLE0=走过咖啡屋
TTITLE1=不想让你哭
TTITLE2=又一夜
TTITLE3=不管有多少个明天
TTITLE4=诀别诗
TTITLE5=春光美
TTITLE6=月夜迷情
TTITLE7=如果爱下去
TTITLE8=老婆老婆我爱你
TTITLE9=黄昏晓
TTITLE10=全世界最伤心的人
TTITLE11=让泪化做相思雨
TTITLE12=江湖笑
EXTD=
EXTT0=
EXTT1=
EXTT2=
EXTT3=
EXTT4=
EXTT5=
EXTT6=
EXTT7=
EXTT8=
EXTT9=
EXTT10=
EXTT11=
EXTT12=
PLAYORDER=
